<?xml version="1.0" standalone="no"?>
<!DOCTYPE svg PUBLIC "-//W3C//DTD SVG 20010904//EN"
 "http://www.w3.org/TR/2001/REC-SVG-20010904/DTD/svg10.dtd">
<svg version="1.0" xmlns="http://www.w3.org/2000/svg"
 width="500.000000pt" height="500.000000pt" viewBox="0 0 500.000000 500.000000"
 preserveAspectRatio="xMidYMid meet">

<g transform="translate(0.000000,500.000000) scale(0.100000,-0.100000)"
fill="#000000" stroke="none">
<path d="M0 2500 l0 -2500 2500 0 2500 0 0 2500 0 2500 -2500 0 -2500 0 0
-2500z m2480 379 c17 -17 32 -30 33 -28 1 2 7 13 13 24 16 29 50 31 66 3 9
-17 12 -62 11 -165 -2 -82 1 -143 6 -143 5 0 32 5 59 11 65 16 102 6 102 -25
0 -15 -11 -33 -26 -45 -57 -45 -198 -67 -224 -35 -8 9 -15 55 -18 119 l-5 103
-33 -33 c-18 -18 -48 -39 -67 -46 -33 -11 -35 -16 -45 -76 -12 -73 -26 -95
-56 -91 -40 6 -46 41 -43 233 l2 180 45 22 c28 14 64 22 97 23 45 0 56 -4 83
-31z"/>
<path d="M2362 2791 c-9 -6 -11 -19 -7 -44 6 -32 10 -35 26 -27 24 14 40 45
33 64 -7 17 -31 21 -52 7z"/>
</g>
</svg>
